<svg width="36" height="36" viewBox="0 0 36 36" fill="none" xmlns="http://www.w3.org/2000/svg">
<rect width="36" height="36" rx="18" fill="#B29F8F"/>
<path fill-rule="evenodd" clip-rule="evenodd" d="M22.0888 27.1501C20.7906 27.1023 17.1114 26.5938 13.2583 22.7416C9.40612 18.8885 8.89857 15.2103 8.84988 13.9112C8.77776 11.9314 10.2941 10.0085 12.0458 9.25751C12.2567 9.16643 12.4877 9.13175 12.7161 9.15688C12.9445 9.18201 13.1624 9.26608 13.3485 9.40085C14.7909 10.452 15.7862 12.0423 16.6409 13.2927C16.8289 13.5675 16.9093 13.9018 16.8667 14.2319C16.8242 14.5621 16.6616 14.8651 16.4101 15.0832L14.6512 16.3895C14.5662 16.4508 14.5064 16.5409 14.4829 16.6431C14.4593 16.7452 14.4736 16.8524 14.5232 16.9448C14.9216 17.6687 15.6302 18.7469 16.4416 19.5583C17.253 20.3697 18.3826 21.1252 19.157 21.5687C19.2541 21.6232 19.3684 21.6385 19.4764 21.6113C19.5844 21.5841 19.6778 21.5166 19.7376 21.4227L20.8825 19.68C21.093 19.4004 21.4035 19.2131 21.749 19.1573C22.0946 19.1015 22.4483 19.1816 22.7361 19.3807C24.0045 20.2588 25.4848 21.237 26.5684 22.6244C26.7141 22.8118 26.8068 23.035 26.8368 23.2705C26.8668 23.506 26.8329 23.7452 26.7388 23.9632C25.9842 25.7238 24.0748 27.2231 22.0888 27.1501Z" fill="white"/>
</svg>
