<svg width="36" height="36" viewBox="0 0 36 36" fill="none" xmlns="http://www.w3.org/2000/svg">
<path d="M0 18C0 8.05887 8.05887 0 18 0V0C27.9411 0 36 8.05887 36 18V18C36 27.9411 27.9411 36 18 36V36C8.05887 36 0 27.9411 0 18V18Z" fill="#B29F8F"/>
<path d="M18 8C23.523 8 28 12.477 28 18C28 23.523 23.523 28 18 28C12.477 28 8 23.523 8 18C8 12.477 12.477 8 18 8ZM18 12C17.7348 12 17.4804 12.1054 17.2929 12.2929C17.1054 12.4804 17 12.7348 17 13V18C17.0001 18.2652 17.1055 18.5195 17.293 18.707L20.293 21.707C20.4816 21.8892 20.7342 21.99 20.9964 21.9877C21.2586 21.9854 21.5094 21.8802 21.6948 21.6948C21.8802 21.5094 21.9854 21.2586 21.9877 20.9964C21.99 20.7342 21.8892 20.4816 21.707 20.293L19 17.586V13C19 12.7348 18.8946 12.4804 18.7071 12.2929C18.5196 12.1054 18.2652 12 18 12Z" fill="white"/>
</svg>
