<svg width="32" height="32" viewBox="0 0 32 32" fill="none" xmlns="http://www.w3.org/2000/svg">
<path d="M2.30368 9.02445L1.15184 10.1424L0 9.02445L1.15184 7.90648L2.30368 9.02445ZM10.4497 28C10.0176 28 9.60318 27.8334 9.29764 27.5369C8.99211 27.2403 8.82046 26.8381 8.82046 26.4187C8.82046 25.9993 8.99211 25.5971 9.29764 25.3006C9.60318 25.004 10.0176 24.8374 10.4497 24.8374V28ZM9.29782 18.0489L1.15184 10.1424L3.45552 7.90648L11.6015 15.813L9.29782 18.0489ZM1.15184 7.90648L9.29782 0L11.6015 2.23595L3.45552 10.1424L1.15184 7.90648ZM2.30368 7.44316H19.4102V10.6057H2.30368V7.44316ZM19.4102 28H10.4497V24.8374H19.4102V28ZM30 17.7216C30 20.4476 28.8843 23.0619 26.8983 24.9895C24.9124 26.9171 22.2188 28 19.4102 28V24.8374C20.373 24.8374 21.3263 24.6534 22.2158 24.2957C23.1053 23.9381 23.9135 23.414 24.5943 22.7532C25.2751 22.0925 25.8151 21.308 26.1835 20.4447C26.552 19.5814 26.7416 18.656 26.7416 17.7216H30ZM19.4102 7.44316C22.2188 7.44316 24.9124 8.52606 26.8983 10.4536C28.8843 12.3812 30 14.9956 30 17.7216H26.7416C26.7416 16.7871 26.552 15.8618 26.1835 14.9985C25.8151 14.1351 25.2751 13.3507 24.5943 12.6899C23.9135 12.0292 23.1053 11.505 22.2158 11.1474C21.3263 10.7898 20.373 10.6057 19.4102 10.6057V7.44316Z" fill="#282828"/>
</svg>
