<svg width="32" height="32" viewBox="0 0 32 32" fill="none" xmlns="http://www.w3.org/2000/svg">
<path d="M22.4006 12.801C22.4006 11.5404 22.1518 10.2908 21.6693 9.12615C21.1869 7.96159 20.4795 6.90278 19.5882 6.01145C18.6969 5.12023 17.638 4.41264 16.4735 3.93029C15.3092 3.44815 14.0611 3.20152 12.801 3.20142C11.5404 3.20142 10.2908 3.44787 9.12615 3.93029C7.96148 4.41272 6.90285 5.12005 6.01145 6.01145C5.12005 6.90285 4.41272 7.96148 3.93029 9.12615C3.44787 10.2908 3.20142 11.5404 3.20142 12.801C3.20152 14.0611 3.44815 15.3092 3.93029 16.4735C4.41264 17.638 5.12023 18.6969 6.01145 19.5882C6.90278 20.4795 7.96159 21.1869 9.12615 21.6693C10.2908 22.1518 11.5404 22.4006 12.801 22.4006C14.0612 22.4005 15.3092 22.1516 16.4735 21.6693C17.6381 21.1869 18.6968 20.4796 19.5882 19.5882C20.4796 18.6968 21.1869 17.6381 21.6693 16.4735C22.1516 15.3092 22.4005 14.0612 22.4006 12.801ZM25.5996 12.801C25.5995 14.4816 25.2678 16.1465 24.6247 17.6992C24.1868 18.756 23.6051 19.7429 22.9068 20.6428L31.5314 29.2674C32.1562 29.8922 32.1562 30.9066 31.5314 31.5314C30.9066 32.1562 29.8922 32.1562 29.2674 31.5314L20.6428 22.9068C19.7429 23.6051 18.756 24.1868 17.6992 24.6247C16.1465 25.2678 14.4816 25.5995 12.801 25.5996C11.1203 25.5996 9.45557 25.2678 7.90277 24.6247C6.34987 23.9814 4.93837 23.0383 3.74983 21.8498C2.56166 20.6615 1.61811 19.2517 0.974956 17.6992C0.331825 16.1465 0.000102459 14.4816 0 12.801C0 11.1204 0.331897 9.45549 0.974956 7.90277C1.61819 6.34987 2.56129 4.93837 3.74983 3.74983C4.93837 2.56129 6.34987 1.61819 7.90277 0.974956C9.45549 0.331897 11.1204 0 12.801 0C14.4816 0.000102459 16.1465 0.331824 17.6992 0.974956C19.2517 1.61811 20.6615 2.56166 21.8498 3.74983C23.0383 4.93837 23.9814 6.34987 24.6247 7.90277C25.2678 9.45557 25.5996 11.1203 25.5996 12.801Z" fill="black"/>
</svg>
